{"asset":{"version":"2.0","generator":"babylon.js glTF exporter for 3dsmax 2021 v20210201.13"},"scene":0,"scenes":[{"nodes":[0]}],"nodes":[{"mesh":0,"rotation":[0.7071068,0.0,0.0,0.7071067],"name":"Text001"}],"meshes":[{"primitives":[{"attributes":{"POSITION":1,"NORMAL":2},"indices":0,"material":0}],"name":"Text001"}],"accessors":[{"bufferView":0,"componentType":5123,"count":37128,"type":"SCALAR","name":"accessorIndices"},{"bufferView":1,"componentType":5126,"count":37128,"max":[0.695,0.0,0.009000001],"min":[-0.695,-0.345,-0.517],"type":"VEC3","name":"accessorPositions"},{"bufferView":1,"byteOffset":445536,"componentType":5126,"count":37128,"type":"VEC3","name":"accessorNormals"}],"bufferViews":[{"buffer":0,"byteLength":74256,"name":"bufferViewScalar"},{"buffer":0,"byteOffset":74256,"byteLength":891072,"byteStride":12,"name":"bufferViewFloatVec3"}],"buffers":[{"uri":"404.bin","byteLength":965328}],"materials":[{"pbrMetallicRoughness":{"baseColorFactor":[0.588,0.588,0.588,1.0],"metallicFactor":0.0,"roughnessFactor":0.450053632},"name":"Material #48"}]}