{"asset":{"version":"2.0","generator":"babylon.js glTF exporter for 3dsmax 2021 v20210201.13"},"scene":0,"scenes":[{"nodes":[0]}],"nodes":[{"mesh":0,"translation":[0.0183021817,0.123182006,-0.11548309],"rotation":[0.7071068,-1.05367128E-08,-1.05367119E-08,0.7071067],"scale":[0.66946733,0.66946733,0.66946733],"name":"Text006"}],"meshes":[{"primitives":[{"attributes":{"POSITION":1,"NORMAL":2},"indices":0,"material":0}],"name":"Text006"}],"accessors":[{"bufferView":0,"componentType":5123,"count":12096,"type":"SCALAR","name":"accessorIndices"},{"bufferView":1,"componentType":5126,"count":12096,"max":[0.213826716,0.1725,0.192000017],"min":[-0.213826716,-0.172500029,-0.191999987],"type":"VEC3","name":"accessorPositions"},{"bufferView":1,"byteOffset":145152,"componentType":5126,"count":12096,"type":"VEC3","name":"accessorNormals"}],"bufferViews":[{"buffer":0,"byteLength":24192,"name":"bufferViewScalar"},{"buffer":0,"byteOffset":24192,"byteLength":290304,"byteStride":12,"name":"bufferViewFloatVec3"}],"buffers":[{"uri":"о.bin","byteLength":314496}],"materials":[{"pbrMetallicRoughness":{"baseColorFactor":[1.0,0.6509804,0.0,1.0],"metallicFactor":0.0,"roughnessFactor":0.450053632},"name":"Material #49"}]}